<?xml version="1.0" encoding="UTF-8" standalone="no"?>
<svg width="27px" height="27px" viewBox="0 0 27 27" version="1.1" xmlns="http://www.w3.org/2000/svg" xmlns:xlink="http://www.w3.org/1999/xlink">
    <!-- Generator: Sketch 41.2 (35397) - http://www.bohemiancoding.com/sketch -->
    <title>iconmonstr-facebook-4-5</title>
    <desc>Created with Sketch.</desc>
    <defs></defs>
    <g id="Page-1" stroke="none" stroke-width="1" fill="none" fill-rule="evenodd">
        <g id="Desktop-HD-Landingpage" transform="translate(-1148.000000, -10318.000000)" fill="#FFFFFF">
            <g id="Group-12" transform="translate(0.000000, 9875.000000)">
                <g id="Group-11" transform="translate(0.000000, 414.000000)">
                    <g id="Group-6" transform="translate(1148.000000, 29.000000)">
                        <g id="iconmonstr-facebook-4-5">
                            <path d="M13.5,0 C6.044625,0 0,6.044625 0,13.5 C0,20.955375 6.044625,27 13.5,27 C20.955375,27 27,20.955375 27,13.5 C27,6.044625 20.955375,0 13.5,0 Z M16.875,9 L15.35625,9 C14.751,9 14.625,9.248625 14.625,9.87525 L14.625,11.25 L16.875,11.25 L16.639875,13.5 L14.625,13.5 L14.625,21.375 L11.25,21.375 L11.25,13.5 L9,13.5 L9,11.25 L11.25,11.25 L11.25,8.6535 C11.25,6.663375 12.297375,5.625 14.657625,5.625 L16.875,5.625 L16.875,9 Z" id="Shape"></path>
                        </g>
                    </g>
                </g>
            </g>
        </g>
    </g>
</svg>