<?xml version="1.0" encoding="UTF-8" standalone="no"?>
<svg width="27px" height="27px" viewBox="0 0 27 27" version="1.1" xmlns="http://www.w3.org/2000/svg" xmlns:xlink="http://www.w3.org/1999/xlink">
    <!-- Generator: Sketch 41.2 (35397) - http://www.bohemiancoding.com/sketch -->
    <title>iconmonstr-twitter-4-2</title>
    <desc>Created with Sketch.</desc>
    <defs></defs>
    <g id="Page-1" stroke="none" stroke-width="1" fill="none" fill-rule="evenodd">
        <g id="Desktop-HD-Landingpage" transform="translate(-1186.000000, -10318.000000)" fill="#FFFFFF">
            <g id="Group-12" transform="translate(0.000000, 9875.000000)">
                <g id="Group-11" transform="translate(0.000000, 414.000000)">
                    <g id="Group-6" transform="translate(1148.000000, 29.000000)">
                        <g id="iconmonstr-twitter-4-2" transform="translate(38.000000, 0.000000)">
                            <path d="M13.5,0 C6.044625,0 0,6.044625 0,13.5 C0,20.955375 6.044625,27 13.5,27 C20.955375,27 27,20.955375 27,13.5 C27,6.044625 20.955375,0 13.5,0 Z M20.32425,10.850625 C20.530125,15.395625 17.1405,20.462625 11.13975,20.462625 C9.315,20.462625 7.617375,19.927125 6.1875,19.01025 C7.902,19.21275 9.613125,18.73575 10.971,17.672625 C9.558,17.64675 8.364375,16.711875 7.9515,15.42825 C8.458875,15.525 8.958375,15.496875 9.41175,15.373125 C7.858125,15.060375 6.784875,13.660875 6.81975,12.1635 C7.25625,12.405375 7.7535,12.5505 8.283375,12.567375 C6.8445,11.6055 6.43725,9.705375 7.28325,8.253 C8.87625,10.20825 11.257875,11.494125 13.94325,11.629125 C13.471875,9.608625 15.00525,7.66125 17.092125,7.66125 C18.02025,7.66125 18.860625,8.053875 19.450125,8.681625 C20.185875,8.537625 20.878875,8.267625 21.502125,7.8975 C21.26025,8.652375 20.748375,9.284625 20.08125,9.685125 C20.734875,9.606375 21.358125,9.433125 21.936375,9.1755 C21.504375,9.82575 20.957625,10.395 20.32425,10.850625 L20.32425,10.850625 Z" id="Shape"></path>
                        </g>
                    </g>
                </g>
            </g>
        </g>
    </g>
</svg>