<?xml version="1.0" encoding="UTF-8" standalone="no"?>
<svg width="49px" height="60px" viewBox="0 0 49 60" version="1.1" xmlns="http://www.w3.org/2000/svg" xmlns:xlink="http://www.w3.org/1999/xlink">
    <!-- Generator: Sketch 42 (36781) - http://www.bohemiancoding.com/sketch -->
    <title>Group</title>
    <desc>Created with Sketch.</desc>
    <defs></defs>
    <g id="Page-1" stroke="none" stroke-width="1" fill="none" fill-rule="evenodd">
        <g id="Group" fill-rule="nonzero" fill="#000000">
            <path d="M0,0 L0,60 L49,60 L49,18.75 L30.1538462,18.75 L30.1538462,0 L0,0 Z M33.9230769,0 L33.9230769,15 L49,15 L33.9230769,0 Z M7.53846154,15 L22.6153846,15 L22.6153846,18.75 L7.53846154,18.75 L7.53846154,15 Z M7.53846154,26.25 L41.4615385,26.25 L41.4615385,30 L7.53846154,30 L7.53846154,26.25 Z M7.53846154,37.5 L33.9230769,37.5 L33.9230769,41.25 L7.53846154,41.25 L7.53846154,37.5 Z M7.53846154,48.75 L41.4615385,48.75 L41.4615385,52.5 L7.53846154,52.5 L7.53846154,48.75 Z" id="Shape"></path>
        </g>
    </g>
</svg>