<?xml version="1.0" encoding="UTF-8" standalone="no"?>
<svg width="27px" height="27px" viewBox="0 0 27 27" version="1.1" xmlns="http://www.w3.org/2000/svg" xmlns:xlink="http://www.w3.org/1999/xlink">
    <!-- Generator: Sketch 41.2 (35397) - http://www.bohemiancoding.com/sketch -->
    <title>camp-icon-instagram</title>
    <desc>Created with Sketch.</desc>
    <defs></defs>
    <g id="Page-1" stroke="none" stroke-width="1" fill="none" fill-rule="evenodd">
        <g id="camp-icon-instagram" fill="#FFFFFF">
            <g id="Page-1">
                <path d="M19.40625,8.199 L19.40625,9.626625 C19.40625,9.96075 19.135125,10.233 18.801,10.233 L17.373375,10.233 C17.037,10.233 16.768125,9.96075 16.768125,9.626625 L16.768125,8.199 C16.768125,7.864875 17.037,7.59375 17.373375,7.59375 L18.801,7.59375 C19.135125,7.59375 19.40625,7.864875 19.40625,8.199 Z M13.5,16.527375 C15.17175,16.527375 16.529625,15.17175 16.529625,13.498875 C16.529625,11.826 15.17175,10.472625 13.5,10.472625 C11.827125,10.472625 10.472625,11.827125 10.472625,13.5 C10.472625,15.172875 11.827125,16.527375 13.5,16.527375 Z M18.293625,12.825 C18.325125,13.0455 18.345375,13.2705 18.345375,13.498875 C18.345375,16.176375 16.176375,18.345375 13.5,18.345375 C10.823625,18.345375 8.654625,16.176375 8.654625,13.5 C8.654625,13.2705 8.674875,13.046625 8.706375,12.826125 C8.73675,12.607875 8.780625,12.39525 8.839125,12.18825 L7.59375,12.18825 L7.59375,18.802125 C7.59375,19.13625 7.864875,19.407375 8.199,19.407375 L18.801,19.407375 C19.135125,19.407375 19.40625,19.13625 19.40625,18.802125 L19.40625,12.18825 L18.160875,12.18825 C18.217125,12.39525 18.262125,12.607875 18.293625,12.825 L18.293625,12.825 Z M27,13.5 C27,20.955375 20.955375,27 13.5,27 C6.044625,27 0,20.955375 0,13.5 C0,6.044625 6.044625,0 13.5,0 C20.955375,0 27,6.044625 27,13.5 L27,13.5 Z M21.375,7.441875 C21.375,6.438375 20.561625,5.625 19.558125,5.625 L7.441875,5.625 C6.438375,5.625 5.625,6.438375 5.625,7.441875 L5.625,19.557 C5.625,20.561625 6.438375,21.375 7.441875,21.375 L19.558125,21.375 C20.561625,21.375 21.375,20.561625 21.375,19.557 L21.375,7.441875 L21.375,7.441875 Z" id="Shape"></path>
            </g>
        </g>
    </g>
</svg>