<?xml version="1.0" encoding="UTF-8" standalone="no"?>
<svg width="28px" height="28px" viewBox="0 0 28 28" version="1.1" xmlns="http://www.w3.org/2000/svg" xmlns:xlink="http://www.w3.org/1999/xlink">
    <!-- Generator: Sketch 42 (36781) - http://www.bohemiancoding.com/sketch -->
    <title>Group 4</title>
    <desc>Created with Sketch.</desc>
    <defs>
        <ellipse id="path-1" cx="14" cy="14" rx="13.5757576" ry="13.5757576"></ellipse>
        <mask id="mask-2" maskContentUnits="userSpaceOnUse" maskUnits="objectBoundingBox" x="0" y="0" width="27.1515152" height="27.1515152" fill="white">
            <use xlink:href="#path-1"></use>
        </mask>
    </defs>
    <g id="Page-1" stroke="none" stroke-width="1" fill="none" fill-rule="evenodd">
        <g id="Desktop-HD-Downloads" transform="translate(-362.000000, -1097.000000)">
            <g id="Group-3-Copy" transform="translate(314.000000, 824.000000)">
                <g id="Group-4" transform="translate(48.000000, 273.000000)">
                    <g>
                        <use id="Oval-42" stroke="#AB2430" mask="url(#mask-2)" stroke-width="4" xlink:href="#path-1"></use>
                        <path d="M18.8684043,13.7887767 L14.9143463,17.6485971 L14.9143463,8.44725028 C14.9143463,8.26344931 14.8534294,8.10667789 14.7315957,7.97693603 C14.5986862,7.85800599 14.4380872,7.79854097 14.2497987,7.79854097 C14.0615102,7.79854097 13.9064491,7.85800599 13.7846154,7.97693603 C13.6517059,8.10667789 13.5852511,8.26344931 13.5852511,8.44725028 L13.5852511,17.6648148 L9.61457936,13.7887767 C9.48166985,13.6698466 9.32660874,13.6103816 9.14939606,13.6103816 C8.96110758,13.6103816 8.80604648,13.6752525 8.68421276,13.8049944 C8.55130324,13.9347363 8.48484848,14.0861018 8.48484848,14.2590909 C8.48484848,14.4428919 8.55130324,14.5942574 8.68421276,14.7131874 L13.7181606,19.6109428 C13.7403122,19.6433782 13.7624638,19.6650019 13.7846154,19.6758137 C13.8399943,19.7136551 13.8953733,19.7514964 13.9507523,19.7893378 C14.0393586,19.8433969 14.1390408,19.8704265 14.2497987,19.8704265 C14.2830261,19.8650206 14.3162534,19.8596147 14.3494808,19.8542088 C14.449163,19.8433969 14.5100798,19.8217733 14.5654588,19.7893378 C14.6208377,19.7514964 14.6762167,19.7136551 14.7315957,19.6758137 L19.8153846,14.7131874 C19.9372183,14.5942574 19.9981352,14.4428919 19.9981352,14.2590909 C19.9981352,14.0752899 19.9372183,13.9185185 19.8153846,13.7887767 C19.6824751,13.6698466 19.5218761,13.6103816 19.3335876,13.6103816 C19.1452991,13.6103816 18.990238,13.6698466 18.8684043,13.7887767 Z" id="Shape" fill="#AB2430"></path>
                    </g>
                </g>
            </g>
        </g>
    </g>
</svg>
