<?xml version="1.0" encoding="UTF-8" standalone="no"?>
<svg width="27px" height="27px" viewBox="0 0 27 27" version="1.1" xmlns="http://www.w3.org/2000/svg" xmlns:xlink="http://www.w3.org/1999/xlink">
    <!-- Generator: Sketch 41.2 (35397) - http://www.bohemiancoding.com/sketch -->
    <title>iconmonstr-youtube-4-2</title>
    <desc>Created with Sketch.</desc>
    <defs></defs>
    <g id="Page-1" stroke="none" stroke-width="1" fill="none" fill-rule="evenodd">
        <g id="Desktop-HD-Landingpage" transform="translate(-1223.000000, -10318.000000)" fill="#FFFFFF">
            <g id="Group-12" transform="translate(0.000000, 9875.000000)">
                <g id="Group-11" transform="translate(0.000000, 414.000000)">
                    <g id="Group-6" transform="translate(1148.000000, 29.000000)">
                        <g id="iconmonstr-youtube-4-2" transform="translate(75.000000, 0.000000)">
                            <path d="M12.28275,15.674625 L13.077,15.674625 L13.077,19.944 L12.28275,19.944 L12.28275,19.472625 C12.1365,19.645875 11.9835,19.778625 11.827125,19.86975 C11.3985,20.115 10.812375,20.109375 10.812375,19.243125 L10.812375,15.674625 L11.6055,15.674625 L11.6055,18.94725 C11.6055,19.119375 11.647125,19.23525 11.817,19.23525 C11.97225,19.23525 12.187125,19.03725 12.283875,18.91575 L12.283875,15.674625 L12.28275,15.674625 Z M13.005,10.971 C13.23,10.971 13.354875,10.791 13.354875,10.546875 L13.354875,8.461125 C13.354875,8.21025 13.244625,8.033625 12.990375,8.033625 C12.756375,8.033625 12.64275,8.21475 12.64275,8.461125 L12.64275,10.546875 C12.641625,10.783125 12.774375,10.971 13.005,10.971 Z M10.821375,14.155875 L8.0775,14.155875 L8.0775,14.99625 L9.003375,14.99625 L9.003375,19.944 L9.89775,19.944 L9.89775,14.99625 L10.821375,14.99625 L10.821375,14.155875 Z M16.1325,16.6905 L16.1325,19.058625 C16.1325,19.587375 15.9345,19.996875 15.406875,19.996875 C15.1155,19.996875 14.873625,19.891125 14.652,19.614375 L14.652,19.942875 L13.851,19.942875 L13.851,14.15475 L14.652,14.15475 L14.652,16.01775 C14.832,15.7995 15.073875,15.6195 15.3585,15.6195 C15.940125,15.620625 16.1325,16.111125 16.1325,16.6905 L16.1325,16.6905 Z M15.314625,16.738875 C15.314625,16.594875 15.287625,16.48575 15.23025,16.410375 C15.1335,16.28325 14.95575,16.26975 14.817375,16.340625 L14.653125,16.471125 L14.653125,19.13175 L14.841,19.2825 C14.970375,19.34775 15.159375,19.35225 15.247125,19.238625 C15.292125,19.177875 15.31575,19.08 15.31575,18.943875 L15.31575,16.738875 L15.314625,16.738875 Z M27,13.5 C27,20.955375 20.955375,27 13.5,27 C6.044625,27 0,20.955375 0,13.5 C0,6.044625 6.044625,0 13.5,0 C20.955375,0 27,6.044625 27,13.5 L27,13.5 Z M14.91075,10.967625 C14.91075,11.410875 15.04575,11.768625 15.494625,11.768625 C15.746625,11.768625 16.095375,11.637 16.4565,11.208375 L16.4565,11.703375 L17.290125,11.703375 L17.290125,7.219125 L16.4565,7.219125 L16.4565,10.62225 C16.35525,10.749375 16.129125,10.958625 15.966,10.958625 C15.787125,10.958625 15.744375,10.837125 15.744375,10.656 L15.744375,7.219125 L14.91075,7.219125 L14.91075,10.967625 L14.91075,10.967625 Z M11.784375,8.386875 L11.784375,10.585125 C11.784375,11.376 12.19725,11.786625 13.005,11.786625 C13.676625,11.786625 14.203125,11.33775 14.203125,10.585125 L14.203125,8.386875 C14.203125,7.684875 13.68,7.182 13.005,7.182 C12.2715,7.182 11.784375,7.668 11.784375,8.386875 L11.784375,8.386875 Z M8.67825,5.625 L9.795375,9.237375 L9.795375,11.70225 L10.73475,11.70225 L10.73475,9.237375 L11.827125,5.625 L10.873125,5.625 L10.27125,8.055 L9.624375,5.625 L8.67825,5.625 L8.67825,5.625 Z M20.062125,17.109 C20.0475,14.178375 19.832625,13.05675 17.983125,12.93075 C16.275375,12.81375 10.72125,12.814875 9.01575,12.93075 C7.1685,13.05675 6.951375,14.17275 6.93675,17.109 C6.951375,20.04075 7.16625,21.16125 9.01575,21.288375 C10.72125,21.40425 16.275375,21.40425 17.983125,21.288375 C19.8315,21.16125 20.0475,20.046375 20.062125,17.109 Z M19.0665,16.822125 L19.0665,17.908875 L17.54775,17.908875 L17.54775,18.714375 C17.54775,19.035 17.57475,19.31175 17.89425,19.31175 C18.2295,19.31175 18.248625,19.08675 18.248625,18.714375 L18.248625,18.417375 L19.0665,18.417375 L19.0665,18.738 C19.0665,19.560375 18.714375,20.05875 17.877375,20.05875 C17.116875,20.05875 16.731,19.506375 16.731,18.738 L16.731,16.821 C16.731,16.079625 17.220375,15.5655 17.935875,15.5655 C18.698625,15.566625 19.0665,16.050375 19.0665,16.822125 L19.0665,16.822125 Z M18.24975,16.81425 C18.24975,16.52625 18.189,16.313625 17.902125,16.313625 C17.6085,16.313625 17.548875,16.520625 17.548875,16.81425 L17.548875,17.247375 L18.24975,17.247375 L18.24975,16.81425 Z" id="Shape"></path>
                        </g>
                    </g>
                </g>
            </g>
        </g>
    </g>
</svg>