<?xml version="1.0" encoding="UTF-8" standalone="no"?>
<svg width="27px" height="27px" viewBox="0 0 27 27" version="1.1" xmlns="http://www.w3.org/2000/svg" xmlns:xlink="http://www.w3.org/1999/xlink">
    <!-- Generator: Sketch 41.2 (35397) - http://www.bohemiancoding.com/sketch -->
    <title>Shape</title>
    <desc>Created with Sketch.</desc>
    <defs></defs>
    <g id="Page-1" stroke="none" stroke-width="1" fill="none" fill-rule="evenodd">
        <path d="M13.5,0 C6.044625,0 0,6.044625 0,13.5 C0,20.955375 6.044625,27 13.5,27 C20.955375,27 27,20.955375 27,13.5 C27,6.044625 20.955375,0 13.5,0 Z M10.218375,18.093375 C7.678125,18.093375 5.625,16.04025 5.625,13.5 C5.625,10.95975 7.678125,8.906625 10.218375,8.906625 C11.45925,8.906625 12.495375,9.358875 13.29525,10.107 L12.049875,11.3085 C11.707875,10.98 11.111625,10.59975 10.218375,10.59975 C8.650125,10.59975 7.371,11.899125 7.371,13.501125 C7.371,15.103125 8.65125,16.4025 10.218375,16.4025 C12.036375,16.4025 12.720375,15.09525 12.823875,14.42025 L10.218375,14.42025 L10.218375,12.84525 L14.55525,12.84525 C14.59575,13.07475 14.62725,13.30425 14.62725,13.606875 C14.628375,16.230375 12.868875,18.093375 10.218375,18.093375 L10.218375,18.093375 Z M21.375,14.155875 L19.40625,14.155875 L19.40625,16.124625 L18.093375,16.124625 L18.093375,14.155875 L16.124625,14.155875 L16.124625,12.844125 L18.093375,12.844125 L18.093375,10.875375 L19.40625,10.875375 L19.40625,12.844125 L21.375,12.844125 L21.375,14.155875 Z" id="Shape" fill="#FFFFFF"></path>
    </g>
</svg>