<?xml version="1.0" encoding="UTF-8" standalone="no"?>
<svg width="110px" height="76px" viewBox="0 0 110 76" version="1.1" xmlns="http://www.w3.org/2000/svg" xmlns:xlink="http://www.w3.org/1999/xlink">
    <!-- Generator: Sketch 42 (36781) - http://www.bohemiancoding.com/sketch -->
    <title>Shape</title>
    <desc>Created with Sketch.</desc>
    <defs></defs>
    <g id="Page-1" stroke="none" stroke-width="1" fill="none" fill-rule="evenodd">
        <g id="Desktop-HD-Landingpage" transform="translate(-1134.000000, -5234.000000)" fill="#AB2430">
            <g id="Group-23" transform="translate(0.000000, 4861.000000)">
                <g id="Group-29" transform="translate(928.000000, 161.000000)">
                    <g id="Group-3" transform="translate(29.000000, 92.000000)">
                        <g id="Shape" transform="translate(177.000000, 120.000000)">
                            <path d="M89.126,22.564 L82,24 L83.438,16.875 L89.126,22.564 L89.126,22.564 Z M84.852,15.46 L90.54,21.149 L106,5.689 L100.311,0 L84.852,15.46 L84.852,15.46 Z"></path>
                            <g id="Group-49" stroke-width="1" transform="translate(0.000000, 69.000000)">
                                <ellipse id="Oval-3" cx="3.14431539" cy="3.09830102" rx="3.14431539" ry="3.09830102"></ellipse>
                                <ellipse id="Oval-3-Copy" cx="49.05132" cy="3.09830102" rx="3.14431539" ry="3.09830102"></ellipse>
                                <ellipse id="Oval-3" cx="14.4638508" cy="3.09830102" rx="3.14431539" ry="3.09830102"></ellipse>
                                <ellipse id="Oval-3-Copy-2" cx="60.3708554" cy="3.09830102" rx="3.14431539" ry="3.09830102"></ellipse>
                                <ellipse id="Oval-3" cx="26.4122493" cy="3.09830102" rx="3.14431539" ry="3.09830102"></ellipse>
                                <ellipse id="Oval-3" cx="37.7317846" cy="3.09830102" rx="3.14431539" ry="3.09830102"></ellipse>
                                <ellipse id="Oval-3-Copy" cx="95.05132" cy="3.09830102" rx="3.14431539" ry="3.09830102"></ellipse>
                                <ellipse id="Oval-3-Copy-2" cx="106.370855" cy="3.09830102" rx="3.14431539" ry="3.09830102"></ellipse>
                                <ellipse id="Oval-3" cx="72.4122493" cy="3.09830102" rx="3.14431539" ry="3.09830102"></ellipse>
                                <ellipse id="Oval-3" cx="83.7317846" cy="3.09830102" rx="3.14431539" ry="3.09830102"></ellipse>
                            </g>
                        </g>
                    </g>
                </g>
            </g>
        </g>
    </g>
</svg>
